<svg width="11.000000" height="20.000000" viewBox="0 0 11 20" fill="none" xmlns="http://www.w3.org/2000/svg" xmlns:xlink="http://www.w3.org/1999/xlink">
	<desc>
			Created with Pixso.
	</desc>
	<defs/>
	<path id="Icon awesome-facebook-f" d="M9.65 11.25L10.2 7.63L6.73 7.63L6.73 5.28C6.71 5.01 6.74 4.74 6.84 4.48C6.93 4.23 7.08 4 7.28 3.81C7.48 3.62 7.71 3.48 7.97 3.4C8.23 3.31 8.5 3.29 8.77 3.32L10.35 3.32L10.35 0.25C9.42 0.1 8.48 0.02 7.55 0.01C6.9 -0.04 6.25 0.05 5.65 0.28C5.04 0.51 4.49 0.87 4.04 1.34C3.59 1.8 3.25 2.36 3.04 2.97C2.83 3.58 2.75 4.23 2.82 4.88L2.82 7.63L-0.36 7.63L-0.36 11.25L2.82 11.25L2.82 20L6.73 20L6.73 11.25L9.65 11.25Z" fill="#446381" fill-opacity="1.000000" fill-rule="nonzero"/>
</svg>
