<svg width="19.000000" height="20.000000" viewBox="0 0 19 20" fill="none" xmlns="http://www.w3.org/2000/svg" xmlns:xlink="http://www.w3.org/1999/xlink">
	<desc>
			Created with Pixso.
	</desc>
	<defs/>
	<path id="Icon awesome-instagram" d="M9.01 4.87C7.99 4.87 7 5.17 6.16 5.73C5.31 6.29 4.65 7.09 4.27 8.03C3.88 8.97 3.77 10 3.97 10.99C4.17 11.99 4.66 12.9 5.37 13.62C6.09 14.34 7 14.83 8 15.03C8.99 15.23 10.02 15.12 10.96 14.74C11.9 14.35 12.7 13.69 13.26 12.85C13.83 12 14.13 11.01 14.13 10C14.13 9.33 14 8.66 13.74 8.04C13.48 7.42 13.11 6.85 12.63 6.37C12.15 5.9 11.59 5.52 10.97 5.26C10.35 5 9.68 4.87 9.01 4.87ZM9.01 13.33C8.35 13.33 7.7 13.14 7.15 12.77C6.61 12.41 6.18 11.89 5.92 11.28C5.67 10.67 5.6 10 5.73 9.35C5.86 8.71 6.18 8.11 6.64 7.65C7.11 7.18 7.7 6.86 8.35 6.73C8.99 6.6 9.66 6.67 10.27 6.92C10.88 7.17 11.4 7.6 11.77 8.15C12.14 8.69 12.33 9.34 12.33 10C12.33 10.88 11.98 11.73 11.36 12.35C10.73 12.97 9.89 13.33 9.01 13.33ZM15.53 4.65C15.53 4.89 15.46 5.12 15.33 5.32C15.2 5.51 15.01 5.67 14.79 5.76C14.58 5.85 14.34 5.87 14.1 5.83C13.87 5.78 13.66 5.67 13.49 5.5C13.33 5.33 13.21 5.12 13.17 4.89C13.12 4.66 13.14 4.42 13.23 4.2C13.32 3.98 13.48 3.79 13.67 3.66C13.87 3.53 14.1 3.46 14.34 3.46C14.49 3.46 14.65 3.49 14.79 3.55C14.94 3.61 15.07 3.7 15.18 3.81C15.29 3.92 15.38 4.05 15.44 4.2C15.5 4.34 15.53 4.5 15.53 4.65ZM18.93 5.87C18.96 4.31 18.38 2.81 17.31 1.68C16.18 0.62 14.68 0.04 13.12 0.06C11.47 -0.03 6.52 -0.03 4.87 0.06C3.32 0.03 1.81 0.61 0.68 1.68C-0.39 2.81 -0.97 4.31 -0.93 5.87C-1.03 7.52 -1.03 12.47 -0.93 14.12C-0.97 15.67 -0.39 17.18 0.68 18.31C1.81 19.37 3.32 19.95 4.87 19.93C6.52 20.02 11.47 20.02 13.12 19.93C14.67 19.96 16.18 19.38 17.31 18.31C18.37 17.18 18.95 15.67 18.92 14.12C19.02 12.47 19.02 7.53 18.92 5.87L18.93 5.87ZM16.79 15.9C16.62 16.33 16.37 16.72 16.04 17.05C15.72 17.38 15.32 17.63 14.89 17.8C12.96 18.2 10.98 18.33 9.01 18.2C7.03 18.32 5.05 18.19 3.11 17.79C2.68 17.62 2.29 17.37 1.97 17.04C1.64 16.71 1.38 16.32 1.21 15.89C0.81 13.96 0.67 11.97 0.8 10C0.67 8.02 0.81 6.04 1.2 4.1C1.37 3.67 1.63 3.28 1.96 2.96C2.28 2.63 2.67 2.37 3.1 2.2C5.04 1.8 7.03 1.67 9.01 1.8C10.98 1.67 12.96 1.81 14.9 2.2C15.33 2.37 15.72 2.63 16.05 2.95C16.38 3.28 16.63 3.67 16.8 4.1C17.2 6.04 17.34 8.02 17.2 10C17.33 11.97 17.2 13.96 16.79 15.9Z" fill="#446381" fill-opacity="1.000000" fill-rule="nonzero"/>
</svg>
