<svg width="20.000000" height="17.000000" viewBox="0 0 20 17" fill="none" xmlns="http://www.w3.org/2000/svg" xmlns:xlink="http://www.w3.org/1999/xlink">
	<desc>
			Created with Pixso.
	</desc>
	<defs/>
	<path id="Icon awesome-twitter" d="M17.94 3.92C17.95 4.1 17.95 4.28 17.95 4.45C17.97 5.99 17.67 7.51 17.09 8.93C16.51 10.35 15.65 11.64 14.56 12.72C13.48 13.81 12.19 14.67 10.77 15.25C9.35 15.83 7.83 16.13 6.29 16.12C4.06 16.12 1.87 15.48 0 14.27C0.32 14.31 0.65 14.33 0.99 14.32C2.83 14.33 4.62 13.71 6.08 12.57C5.22 12.56 4.39 12.28 3.7 11.77C3.02 11.26 2.5 10.55 2.24 9.73C2.5 9.77 2.76 9.8 3.01 9.8C3.38 9.8 3.74 9.75 4.09 9.66C3.16 9.47 2.33 8.96 1.73 8.23C1.13 7.5 0.81 6.58 0.81 5.63L0.81 5.58C1.38 5.9 2.01 6.08 2.66 6.1C1.79 5.52 1.17 4.63 0.94 3.61C0.7 2.6 0.86 1.52 1.39 0.62C2.42 1.89 3.7 2.92 5.16 3.66C6.62 4.4 8.21 4.82 9.84 4.91C9.78 4.6 9.74 4.28 9.74 3.97C9.74 3.15 9.99 2.34 10.46 1.66C10.92 0.98 11.57 0.46 12.34 0.16C13.1 -0.14 13.94 -0.21 14.74 -0.03C15.55 0.15 16.28 0.57 16.84 1.17C17.76 0.99 18.64 0.65 19.44 0.18C19.13 1.12 18.49 1.93 17.64 2.44C18.45 2.34 19.25 2.12 20 1.79C19.44 2.61 18.74 3.33 17.94 3.92Z" fill="#446381" fill-opacity="1.000000" fill-rule="nonzero"/>
</svg>
